<svg width="24" height="25" viewBox="0 0 24 25" fill="none" xmlns="http://www.w3.org/2000/svg">
<g clip-path="url(#clip0_98_261)">
<path d="M13 3.5H11V13.5H13V3.5ZM17.83 5.67L16.41 7.09C17.99 8.36 19 10.31 19 12.5C19 16.37 15.87 19.5 12 19.5C8.13 19.5 5 16.37 5 12.5C5 10.31 6.01 8.36 7.58 7.08L6.17 5.67C4.23 7.32 3 9.76 3 12.5C3 17.47 7.03 21.5 12 21.5C16.97 21.5 21 17.47 21 12.5C21 9.76 19.77 7.32 17.83 5.67Z" fill="#F8C69A"/>
</g>
<defs>
<clipPath id="clip0_98_261">
<rect width="24" height="24" fill="white" transform="translate(0 0.5)"/>
</clipPath>
</defs>
</svg>
